<svg width="149" height="45" viewBox="0 0 149 45" fill="none" xmlns="http://www.w3.org/2000/svg">
<path d="M14.7667 38.909H26.9778L28.8095 43.3842H39.7995L27.1814 14.9053H14.5632L1.94507 43.3842H12.9351L14.7667 38.909ZM24.1286 31.5858H17.616L20.6688 23.8559H21.0758L24.1286 31.5858ZM57.6012 36.4679C54.5484 36.4679 52.1062 34.0269 52.1062 30.7722V14.9053H42.1338V30.7722C42.1338 38.5021 48.2393 44.6048 57.6012 44.6048C66.963 44.6048 73.0686 38.5021 73.0686 30.7722V14.9053H63.0962V30.7722C63.0962 34.0269 60.6946 36.4679 57.6012 36.4679ZM108.489 23.0422V14.9053H78.1643V23.0422H88.3402V43.3842H98.3126V23.0422H108.489ZM135.603 29.1448C135.603 33.2132 132.346 36.4679 128.276 36.4679C124.206 36.4679 120.949 33.2132 120.949 29.1448C120.949 25.0764 124.206 21.8216 128.276 21.8216C132.346 21.8216 135.603 25.0764 135.603 29.1448ZM145.982 29.1448C145.982 21.2114 138.452 13.6848 128.276 13.6848C118.1 13.6848 110.57 21.2114 110.57 29.1448C110.57 37.0782 118.1 44.6048 128.276 44.6048C138.452 44.6048 145.982 37.0782 145.982 29.1448Z" fill="white"/>
<path d="M41.918 0.14281H34.2502V1.95173H39.1795L33.9407 6.48594V8.23536H42.0014V6.42643H36.8221L41.918 1.86843V0.14281ZM53.7866 0.14281H51.6077L48.7978 6.08131L45.976 0.14281H43.809V8.23536H45.7616V4.10578L47.7024 8.23536H49.8813L51.8221 4.10578V8.23536H53.7866V0.14281ZM57.5402 0.14281H55.5876V8.23536H57.5402V0.14281ZM66.5939 0.14281H58.8785V1.95173H61.748V8.23536H63.7244V1.95173H66.5939V0.14281ZM71.8414 0.14281H67.9241V8.23536H69.8768V6.22412H71.3056L72.52 8.23536H74.949L73.2821 5.79569C74.1512 5.33156 74.7227 4.34379 74.7227 3.17751C74.7227 1.4162 73.4845 0.14281 71.8414 0.14281ZM71.5675 1.95173C72.2224 1.95173 72.7582 2.51107 72.7582 3.17751C72.7582 3.85586 72.2224 4.4152 71.5556 4.4152H69.8768V1.95173H71.5675ZM76.3426 0.14281V8.23536H82.5459V6.42643H78.2953V5.03404H81.8434V3.34413H78.2953V1.95173H82.5459V0.14281H76.3426ZM92.9558 0.14281H90.8007L88.3003 5.9266L85.7881 0.14281H83.633L87.2168 8.23536H89.36L92.9558 0.14281ZM96.2016 0.14281H94.2489V8.23536H96.2016V0.14281ZM104.136 5.31966C103.743 6.03371 103.005 6.54544 102.005 6.54544C100.588 6.54544 99.5996 5.41487 99.5996 4.12958C99.5996 2.79669 100.588 1.76132 102.005 1.76132C103.029 1.76132 103.779 2.24925 104.16 2.9871L105.815 2.02314C105.089 0.809255 103.731 0 102.005 0C99.4687 0 97.6232 1.88033 97.6232 4.12958C97.6232 6.52164 99.4687 8.37817 102.005 8.37817C103.719 8.37817 105.065 7.48561 105.791 6.27172L104.136 5.31966ZM114.574 0.14281H112.61V3.28462H109.05V0.14281H107.097V8.23536H109.05V5.09354H112.61V8.23536H114.574V0.14281Z" fill="white"/>
<path d="M0 4H28" stroke="white" stroke-width="3"/>
<path d="M120.603 4.3606H148.603" stroke="white" stroke-width="3"/>
</svg>
