<svg width="288" height="377" viewBox="0 0 288 377" fill="none" xmlns="http://www.w3.org/2000/svg">
<path d="M24.5 7.82292V17.0001L57 54.0001V83.0001L24.5 113L0.5 121L14 139L37.5 156L18.5 165L24.5 186.5L44.5 229L24.5 238.5L18.5 261L37.5 280L24.5 315L76.5 326.5L98 377L121 358.5L157.5 371.5L203 358.5L208.512 338.996L208.5 339L192.5 324.5L208.5 289L174.5 249.5H202L192.5 229L216 207.5L238.5 215L287.5 173.5L274 119.5L279 109.024V56H215.5L200.5 46.5L161.5 56L138.5 39.5L100 0.5L25 8.5L24.5 7.82292Z" fill="#D53C3C"/>
</svg>
